<svg xmlns="http://www.w3.org/2000/svg" viewBox="0 0 350 250">
    <svg xmlns="http://www.w3.org/2000/svg" xmlns:xlink="http://www.w3.org/1999/xlink" viewBox="0 0 888.01 938.8">
        <defs>
            <style>
                .cls-1{isolation:isolate;}.cls-2{fill:#1c1c1b;}.cls-3{fill:#5c8cbe;}.cls-4{fill:#e7d9a1;mix-blend-mode:color-burn;}.cls-5,.cls-6,.cls-7{opacity:0.8;mix-blend-mode:soft-light;}.cls-5{fill:url(#linear-gradient);}.cls-6{fill:url(#linear-gradient-2);}.cls-7{fill:url(#linear-gradient-3);}.cls-8{fill:#f6d01e;}.cls-9{fill:#e39b21;}.cls-10{fill:#fff;}.cls-11{fill:#d07818;}.cls-12{fill:#f0bd1e;}.cls-13{fill:#797997;}.cls-14{fill:#535370;}.cls-15{fill:#8f90b2;}.cls-16{fill:#f4f3f3;}.cls-17{fill:#d1d1d2;}.cls-18{fill:#de8d24;}
                #animate-main {

                }
            </style>
            <linearGradient id="linear-gradient" x1="675.87" y1="574.91" x2="396.76" y2="816.22" gradientUnits="userSpaceOnUse">
                <stop offset="0" stop-color="#fff"/>
                <stop offset="1" stop-opacity="0"/>
            </linearGradient>
            <linearGradient id="linear-gradient-2" x1="11816.8" y1="606.15" x2="11554.34" y2="833.07" gradientTransform="matrix(-1, 0, 0, 1, 11804.23, 0)" gradientUnits="userSpaceOnUse">
                <stop offset="0" stop-color="#fff"/>
                <stop offset="0.42" stop-color="#8f8f8f" stop-opacity="0.56"/>
                <stop offset="0.82" stop-color="#282828" stop-opacity="0.16"/>
                <stop offset="1" stop-opacity="0"/>
            </linearGradient>
            <linearGradient id="linear-gradient-3" x1="903.48" y1="646.71" x2="698.47" y2="823.96" gradientUnits="userSpaceOnUse">
                <stop offset="0" stop-color="#fff"/>
                <stop offset="0.12" stop-color="#e7e7e7" stop-opacity="0.91"/>
                <stop offset="0.38" stop-color="#aaa" stop-opacity="0.67"/>
                <stop offset="0.74" stop-color="#484848" stop-opacity="0.28"/>
                <stop offset="1" stop-opacity="0"/>
            </linearGradient>
        </defs>

        <ellipse class="cls-2" cx="444.01" cy="885.94" rx="318.8" ry="42.86">
            <animate attributeName="rx" values="350.68;318.8;350.68" keyTimes="0;0.5;1" dur="3s" begin="0s" repeatCount="indefinite" />
            <animate attributeName="ry" values="47.15;42.86;47.15" keyTimes="0;0.5;1" dur="3s" begin="0s" repeatCount="indefinite" />
        </ellipse>
        <path d="M0 0 L 0 30 L 0 0" stroke-width="0" fill-opacity="0" id="theMotionPath" />
        <g id="animate-main">
            <path class="cls-3" d="M118.56,402.3c17.81,27.21,93.38,35.34,111.9,3.63C195.21,384,148.22,396.14,118.56,402.3Z"/>
            <path class="cls-3" d="M87.24,299.12c6.67,24.46,64.06,43.56,87.27,21.68C152.67,297.56,112.32,299.24,87.24,299.12Z"/>
            <path class="cls-3" d="M90.41,237.3c-4,23.72,39.85,55.5,69.72,41.68C150,252.5,112.94,243.77,90.41,237.3Z"/>
            <path class="cls-3" d="M97.88,186.09c-6.62,23.93,34.76,59.24,66.69,47.09C157,205.51,120.18,194.18,97.88,186.09Z"/>
            <path class="cls-3" d="M129.15,128.41c-20.32,19.1-4,65.18,32.16,65.49C171.06,166.49,144.49,143.45,129.15,128.41Z"/>
            <path class="cls-3" d="M158.43,90.47c-18.6,13.86-11.28,53,17.6,56.38C187.2,125.28,168.82,104.11,158.43,90.47Z"/>
            <path class="cls-3" d="M264.49,118.66c1.61,19.89-37.17,44.32-61,31.48C213.88,128.6,245.3,123,264.49,118.66Z"/>
            <path class="cls-3" d="M257.69,154.32c2.35,22.15-40.2,50.06-67.11,36.16C201.54,166.29,236.41,159.52,257.69,154.32Z"/>
            <path class="cls-3" d="M260.43,200.1c-.1,22.75-46.63,48.22-72.5,32.17C201.84,208.36,238.15,203.91,260.43,200.1Z"/>
            <path class="cls-3" d="M269.43,234.58c3.58,24-41.4,55.63-71.32,41.28C208.9,249.22,246.52,240.84,269.43,234.58Z"/>
            <path class="cls-3" d="M285.64,277.42c6,23.71-39.74,55.58-73.22,41.83C221.72,292.76,261.52,283.95,285.64,277.42Z"/>
            <path class="cls-3" d="M106.07,352.89c10.53,26.83,77.09,43.73,100.28,17.45C179,346.05,134.11,351.07,106.07,352.89Z"/>
            <path class="cls-3" d="M298.68,305c15.75,26-19.49,75.12-60.17,68C237.68,339.78,276,319,298.68,305Z"/>
            <path class="cls-3" d="M327.38,339.59c23.31,22.16,4.35,76.59-37.3,77.49C279,385,309.66,357.49,327.38,339.59Z"/>
            <path class="cls-3" d="M148.9,461.89c27.47,27.65,114.81,24.07,127-14.77C230.27,428.34,180.64,450,148.9,461.89Z"/>
            <path class="cls-3" d="M206.12,518.07c36.15,20.55,118.78-2,116.81-42C272.42,468,232.39,499.66,206.12,518.07Z"/>
            <path class="cls-3" d="M362.56,369.08c28.16,18.34,22.45,74.61-18.25,81.62C325.78,420.81,349.4,389.28,362.56,369.08Z"/>
            <path class="cls-3" d="M261.68,62.35c-34.25-3.54-80,35.76-60,62.44C239.85,115.66,252.37,82.52,261.68,62.35Z"/>
            <path class="cls-3" d="M492.75,510.07c-326.66-26.3-380-301-278.57-410l8.43,4.17c-98.51,105.24-44.06,365.66,270.71,389.92Z"/>
            <path class="cls-3" d="M778.48,402.3c-17.81,27.21-93.38,35.34-111.9,3.63C701.82,384,748.81,396.14,778.48,402.3Z"/>
            <path class="cls-3" d="M809.79,299.12c-6.67,24.46-64.06,43.56-87.26,21.68C744.37,297.56,784.72,299.24,809.79,299.12Z"/>
            <path class="cls-3" d="M806.62,237.3c4,23.72-39.85,55.5-69.72,41.68C747.05,252.5,784.09,243.77,806.62,237.3Z"/>
            <path class="cls-3" d="M799.15,186.09c6.62,23.93-34.76,59.24-66.69,47.09C740,205.51,776.86,194.18,799.15,186.09Z"/>
            <path class="cls-3" d="M767.88,128.41c20.32,19.1,4,65.18-32.16,65.49C726,166.49,752.54,143.45,767.88,128.41Z"/>
            <path class="cls-3" d="M738.61,90.47c18.6,13.86,11.27,53-17.6,56.38C709.83,125.28,728.21,104.11,738.61,90.47Z"/>
            <path class="cls-3" d="M632.54,118.66c-1.61,19.89,37.17,44.32,61,31.48C683.15,128.6,651.74,123,632.54,118.66Z"/>
            <path class="cls-3" d="M639.34,154.32c-2.35,22.15,40.2,50.06,67.11,36.16C695.49,166.29,660.63,159.52,639.34,154.32Z"/>
            <path class="cls-3" d="M636.6,200.1c.11,22.75,46.63,48.22,72.5,32.17C695.2,208.36,658.88,203.91,636.6,200.1Z"/>
            <path class="cls-3" d="M627.6,234.58c-3.58,24,41.4,55.63,71.32,41.28C688.13,249.22,650.51,240.84,627.6,234.58Z"/>
            <path class="cls-3" d="M611.39,277.42c-6,23.71,39.74,55.58,73.22,41.83C675.31,292.76,635.52,283.95,611.39,277.42Z"/>
            <path class="cls-3" d="M791,352.89c-10.53,26.83-77.09,43.73-100.28,17.45C718,346.05,762.92,351.07,791,352.89Z"/>
            <path class="cls-3" d="M598.35,305c-15.75,26,19.49,75.12,60.17,68C659.35,339.78,621.08,319,598.35,305Z"/>
            <path class="cls-3" d="M569.65,339.59c-23.31,22.16-4.35,76.59,37.3,77.49C618.06,385,587.37,357.49,569.65,339.59Z"/>
            <path class="cls-3" d="M748.14,461.89c-27.47,27.65-114.81,24.07-127-14.77C666.76,428.34,716.39,450,748.14,461.89Z"/>
            <path class="cls-3" d="M690.92,518.07c-36.15,20.55-118.78-2-116.81-42C624.61,468,664.65,499.66,690.92,518.07Z"/>
            <path class="cls-3" d="M534.47,369.08c-28.16,18.34-22.45,74.61,18.25,81.62C571.25,420.81,547.63,389.28,534.47,369.08Z"/>
            <path class="cls-3" d="M635.35,62.35c34.25-3.54,80,35.76,60,62.44C657.19,115.66,644.66,82.52,635.35,62.35Z"/>
            <path class="cls-3" d="M404.28,510.07c326.66-26.3,380-301,278.57-410l-8.43,4.17c98.5,105.24,44.07,365.66-270.71,389.92Z"/>
            <g id="PODIUM">
                <polygon class="cls-3" points="301.22 829.61 26.3 829.61 0 621.95 301.22 621.95 301.22 829.61"/>
                <polygon class="cls-3" points="867.73 829.61 614.73 829.61 614.73 643.01 888.01 643.01 867.73 829.61"/>
                <polygon class="cls-3" points="631.83 829.61 266.45 829.61 250.18 576.8 646.86 576.8 631.83 829.61"/>
                <polygon class="cls-4" points="254.69 829.61 265.96 829.61 252.7 621.95 243.41 621.95 257.5 819 131.85 829.61 254.69 829.61"/>
                <polygon class="cls-4" points="642.74 643.01 631.83 829.61 714.47 829.61 640.66 820.15 654.18 643.01 642.74 643.01"/>
                <polygon class="cls-5" points="426.87 591.85 631.08 591.85 615.71 825.26 426.87 591.85"/>
                <polygon class="cls-6" points="220.88 636.99 16.66 636.99 39.44 822.11 220.88 636.99"/>
                <polygon class="cls-7" points="730.25 661.07 872.24 661.07 854.21 824.72 730.25 661.07"/>
                <polygon class="cls-4" points="260.91 576.8 273.47 822.6 489.65 829.61 265.96 829.61 250.18 576.8 260.91 576.8"/>
            </g>
            <polygon class="cls-8" points="467.76 426.06 420.26 426.06 420.36 423.84 422.24 379.84 425.18 311.48 428.31 238.55 459.71 238.55 462.84 311.48 465.78 379.84 467.67 423.84 467.76 426.06"/>
            <polygon class="cls-9" points="467.67 423.84 420.36 423.84 422.24 379.84 465.78 379.84 467.67 423.84"/>
            <path class="cls-8" d="M516.77,431.63H371.25a44,44,0,0,1,44-44h57.52a44,44,0,0,1,44,44Z"/>
            <path class="cls-10" d="M452.73,395.38h-55.1a6.46,6.46,0,0,0,0,12.92h55.1a6.46,6.46,0,0,0,0-12.92Z"/>
            <path class="cls-11" d="M462.84,311.48a93.94,93.94,0,0,1-37.66,0l3.13-72.93h31.4Z"/>
            <path class="cls-8" d="M549.87,83.63v94.81c0,33.5-11.87,63.84-31,85.77S473.24,299.77,444,299.77c-58.46,0-105.86-54.31-105.86-121.33V83.63Z"/>
            <path class="cls-9" d="M546,83.63v67.85c0,33.5-11.87,63.84-31,85.77s-45.62,35.56-74.85,35.56c-48.44,0-89.25-37.3-101.84-88.21,2.8,64.15,49.07,115.17,105.73,115.17,29.24,0,55.69-13.56,74.85-35.56s31-52.27,31-85.77V83.63Z"/>
            <rect class="cls-11" x="338.14" y="83.63" width="211.73" height="27.97"/>
            <path class="cls-12" d="M554.84,101.88H333.17a15,15,0,0,1-15-15h0a15,15,0,0,1,15-15H554.84a15,15,0,0,1,15,15h0A15,15,0,0,1,554.84,101.88Z"/>
            <path class="cls-10" d="M366.62,77.22h-22a6.46,6.46,0,0,0,0,12.92h22a6.46,6.46,0,0,0,0-12.92Z"/>
            <path class="cls-10" d="M447.12,77.22H392a6.46,6.46,0,0,0,0,12.92h55.1a6.46,6.46,0,0,0,0-12.92Z"/>
            <ellipse class="cls-10" cx="373.08" cy="191.7" rx="20.29" ry="28.74" transform="translate(-43.73 144.7) rotate(-20.76)"/>
            <path class="cls-13" d="M557.84,443.51v69.86H330.17V443.51A21.8,21.8,0,0,1,352,421.72h184.1A21.79,21.79,0,0,1,557.84,443.51Z"/>
            <rect class="cls-14" x="330.17" y="459.77" width="227.68" height="45.81"/>
            <path class="cls-13" d="M560.37,467.54H327.64a21.79,21.79,0,0,0-21.79,21.79v24h276.3v-24A21.79,21.79,0,0,0,560.37,467.54Z"/>
            <path class="cls-14" d="M560.37,467.54h-2.15a21.69,21.69,0,0,1,5.11,14v24H305.86v7.77h276.3v-24A21.79,21.79,0,0,0,560.37,467.54Z"/>
            <path class="cls-15" d="M446.34,476H337.4a7.24,7.24,0,0,0-7.24,7.24h0a7.24,7.24,0,0,0,7.24,7.24H446.34a7.24,7.24,0,0,0,7.24-7.24h0A7.24,7.24,0,0,0,446.34,476Z"/>
            <path class="cls-15" d="M467.74,431.36H358.8a7.24,7.24,0,0,0-7.24,7.24h0a7.24,7.24,0,0,0,7.24,7.24H467.74A7.24,7.24,0,0,0,475,438.6h0A7.24,7.24,0,0,0,467.74,431.36Z"/>
            <path class="cls-16" d="M433.73,677.95l-21.06,4.82L406.07,656l36.58-10.35h25.16V771.46H433.73Z"/>
            <polygon class="cls-16" points="130.8 532.61 106.75 532.61 106.8 531.49 107.75 509.22 109.24 474.62 110.83 437.7 126.72 437.7 128.3 474.62 129.79 509.22 130.75 531.49 130.8 532.61"/>
            <polygon class="cls-17" points="130.75 531.49 106.8 531.49 107.75 509.22 129.79 509.22 130.75 531.49"/>
            <path class="cls-16" d="M155.6,535.43H81.94a22.27,22.27,0,0,1,22.27-22.27h29.11a22.27,22.27,0,0,1,22.27,22.27Z"/>
            <path class="cls-10" d="M123.19,517.08H95.3a3.27,3.27,0,0,0,0,6.54h27.89a3.27,3.27,0,0,0,0-6.54Z"/>
            <path class="cls-17" d="M128.3,474.62a47.55,47.55,0,0,1-19.06,0l1.59-36.91h15.89Z"/>
            <path class="cls-16" d="M172.35,359.29v48c0,17-6,32.32-15.69,43.41s-23.09,18-37.89,18c-29.59,0-53.58-27.49-53.58-61.41v-48Z"/>
            <path class="cls-16" d="M170.38,359.29v34.34c0,17-6,32.32-15.69,43.41s-23.09,18-37.89,18c-24.52,0-45.18-18.88-51.54-44.65,1.42,32.47,24.84,58.29,53.51,58.29,14.8,0,28.19-6.86,37.89-18s15.69-26.46,15.69-43.41v-48Z"/>
            <rect class="cls-17" x="65.19" y="359.29" width="107.17" height="14.16"/>
            <path class="cls-16" d="M174.87,368.53H62.67a7.62,7.62,0,0,1-7.62-7.62h0a7.62,7.62,0,0,1,7.62-7.62h112.2a7.62,7.62,0,0,1,7.62,7.62h0A7.62,7.62,0,0,1,174.87,368.53Z"/>
            <path class="cls-10" d="M79.6,356H68.46a3.27,3.27,0,0,0,0,6.54H79.6a3.27,3.27,0,0,0,0-6.54Z"/>
            <path class="cls-10" d="M120.35,356H92.46a3.27,3.27,0,0,0,0,6.54h27.89a3.27,3.27,0,0,0,0-6.54Z"/>
            <ellipse class="cls-10" cx="82.87" cy="413.99" rx="10.27" ry="14.55" transform="translate(-141.37 56.26) rotate(-20.76)"/>
            <path class="cls-13" d="M176.39,541.44V576.8H61.15V541.44a11,11,0,0,1,11-11h93.18A11,11,0,0,1,176.39,541.44Z"/>
            <rect class="cls-14" x="61.15" y="549.68" width="115.24" height="23.19"/>
            <path class="cls-13" d="M177.67,553.61H59.87a11,11,0,0,0-11,11V576.8H188.7V564.64A11,11,0,0,0,177.67,553.61Z"/>
            <path class="cls-14" d="M177.67,553.61h-1.09a11,11,0,0,1,2.59,7.09v12.16H48.85v3.93H188.7V564.64A11,11,0,0,0,177.67,553.61Z"/>
            <path class="cls-15" d="M120,557.88H64.81a3.66,3.66,0,0,0-3.66,3.66h0a3.66,3.66,0,0,0,3.66,3.66H120a3.66,3.66,0,0,0,3.66-3.66h0A3.66,3.66,0,0,0,120,557.88Z"/>
            <path class="cls-15" d="M130.78,535.3H75.64A3.66,3.66,0,0,0,72,539h0a3.66,3.66,0,0,0,3.66,3.66h55.14a3.66,3.66,0,0,0,3.66-3.66h0A3.66,3.66,0,0,0,130.78,535.3Z"/>
            <path class="cls-16" d="M104.41,748.75,133,726.93c7.2-5.46,9.82-9.16,9.82-13.75,0-4.8-3.38-7.75-8.51-7.75s-9.16,2.95-15.17,9.82l-14.29-11.89C113,692.78,121.1,687,135.94,687c16.69,0,28.15,9.93,28.15,24.55,0,12.22-6.22,18.66-17.67,26.73l-13.09,9.16h31.53v17.24H104.41Z"/>
            <polygon class="cls-18" points="774.68 536.25 750.64 536.25 750.69 535.13 751.64 512.86 753.13 478.26 754.71 441.35 770.61 441.35 772.19 478.26 773.68 512.86 774.63 535.13 774.68 536.25"/>
            <polygon class="cls-9" points="774.63 535.13 750.69 535.13 751.64 512.86 773.68 512.86 774.63 535.13"/>
            <path class="cls-18" d="M799.48,539.07H725.83A22.27,22.27,0,0,1,748.1,516.8h29.11a22.27,22.27,0,0,1,22.27,22.27Z"/>
            <path class="cls-10" d="M767.07,520.73H739.18a3.27,3.27,0,0,0,0,6.54h27.89a3.27,3.27,0,1,0,0-6.54Z"/>
            <path class="cls-11" d="M772.19,478.26a47.55,47.55,0,0,1-19.06,0l1.59-36.91h15.89Z"/>
            <path class="cls-18" d="M816.24,362.93v48c0,17-6,32.32-15.69,43.41s-23.09,18-37.89,18c-29.59,0-53.58-27.49-53.58-61.41v-48Z"/>
            <path class="cls-9" d="M814.27,362.93v34.34c0,17-6,32.32-15.69,43.41s-23.09,18-37.89,18c-24.52,0-45.18-18.88-51.54-44.65,1.42,32.47,24.84,58.29,53.51,58.29,14.8,0,28.19-6.86,37.89-18s15.69-26.46,15.69-43.41v-48Z"/>
            <rect class="cls-11" x="709.07" y="362.93" width="107.17" height="14.16"/>
            <path class="cls-18" d="M818.76,372.17H706.56a7.62,7.62,0,0,1-7.62-7.62h0a7.62,7.62,0,0,1,7.62-7.62h112.2a7.62,7.62,0,0,1,7.62,7.62h0A7.62,7.62,0,0,1,818.76,372.17Z"/>
            <path class="cls-10" d="M723.49,359.69H712.34a3.27,3.27,0,0,0,0,6.54h11.14a3.27,3.27,0,0,0,0-6.54Z"/>
            <path class="cls-10" d="M764.23,359.69H736.34a3.27,3.27,0,0,0,0,6.54h27.89a3.27,3.27,0,0,0,0-6.54Z"/>
            <ellipse class="cls-10" cx="726.76" cy="417.63" rx="10.27" ry="14.55" transform="translate(-100.85 284.75) rotate(-20.76)"/>
            <path class="cls-13" d="M820.28,545.09v35.36H705V545.09a11,11,0,0,1,11-11h93.18A11,11,0,0,1,820.28,545.09Z"/>
            <rect class="cls-14" x="705.04" y="553.32" width="115.24" height="23.19"/>
            <path class="cls-13" d="M821.56,557.25H703.76a11,11,0,0,0-11,11v12.16H832.58V568.28A11,11,0,0,0,821.56,557.25Z"/>
            <path class="cls-14" d="M821.56,557.25h-1.09a11,11,0,0,1,2.59,7.09v12.16H692.73v3.93H832.58V568.28A11,11,0,0,0,821.56,557.25Z"/>
            <path class="cls-15" d="M763.84,561.52H708.7a3.66,3.66,0,0,0-3.66,3.66h0a3.66,3.66,0,0,0,3.66,3.66h55.14a3.66,3.66,0,0,0,3.66-3.66h0A3.66,3.66,0,0,0,763.84,561.52Z"/>
            <path class="cls-15" d="M774.67,538.94H719.53a3.66,3.66,0,0,0-3.66,3.66h0a3.66,3.66,0,0,0,3.66,3.66h55.14a3.66,3.66,0,0,0,3.66-3.66h0A3.66,3.66,0,0,0,774.67,538.94Z"/>
            <path class="cls-16" d="M714.39,761.79l13.34-13.34C733.2,754,739,757.19,746,757.19c6,0,9.84-3.06,9.84-8s-4.48-7.87-12.46-7.87h-9l-3.06-11,17.6-15.85h-29.3V697.28H775v15.2l-18.26,15.63c10.93,2.41,19.79,8.53,19.79,21.76,0,15.52-12.46,25.47-29.52,25.47C732.21,775.34,721.83,770,714.39,761.79Z"/>
            <g id="stars">
                <polygon class="cls-10" points="556.68 19.89 534.6 0 529.76 29.33 509.87 51.41 539.2 56.25 561.28 76.14 566.12 46.81 586.01 24.73 556.68 19.89"/>
                <polygon class="cls-10" points="560.08 92.61 551.11 84.53 549.15 96.44 541.07 105.41 552.98 107.37 561.95 115.45 563.91 103.54 571.99 94.57 560.08 92.61"/>
                <polygon class="cls-10" points="598.79 80.1 593.5 75.33 592.35 82.36 587.58 87.65 594.61 88.81 599.89 93.57 601.05 86.55 605.82 81.26 598.79 80.1"/>
            </g>
        </g>
        <animateMotion dur="3s" repeatCount="indefinite" xlink:href="#animate-main">
            <mpath xlink:href="#theMotionPath"/>
        </animateMotion>

    </svg>
</svg>