<svg xmlns="http://www.w3.org/2000/svg" viewBox="0 0 350 250"><svg xmlns="http://www.w3.org/2000/svg" xmlns:xlink="http://www.w3.org/1999/xlink" viewBox="0 0 888.34 953.75"><defs><style>.cls-1,.cls-12{fill:#1c1c1b;}.cls-2{fill:#679dd9;}.cls-3{fill:#446789;}.cls-4{fill:none;stroke:#5398d8;stroke-linecap:round;stroke-width:7px;}.cls-12,.cls-4{stroke-miterlimit:10;}.cls-5{fill:#f4f3f3;}.cls-6{fill:#d1d1d2;}.cls-7{fill:#f8da4e;}.cls-8{fill:#e7a626;}.cls-9{fill:#c94e33;}.cls-10{fill:#d05e46;}.cls-11{fill:#d5725c;}.cls-12{stroke:#f8da4e;stroke-width:25px;}</style></defs><ellipse cx="444.17" cy="499.43" class="cls-1" rx="179.83" ry="42.18"><animate attributeName="rx" values="179.83;161.84;179.83" keyTimes="0;0.5;1" dur="3s" begin="0s" repeatCount="indefinite"/><animate attributeName="ry" values="42.18;37.96;42.18" keyTimes="0;0.5;1" dur="3s" begin="0s" repeatCount="indefinite"/></ellipse><ellipse cx="684.17" cy="718.06" class="cls-1" rx="99.82" ry="30.93"><animate attributeName="rx" values="99.82;89.84;99.82" keyTimes="0;0.5;1" dur="3s" begin="0s" repeatCount="indefinite"/><animate attributeName="ry" values="30.93;27.83;30.93" keyTimes="0;0.5;1" dur="3s" begin="0s" repeatCount="indefinite"/></ellipse><ellipse cx="204.17" cy="718.06" class="cls-1" rx="99.82" ry="30.93"><animate attributeName="rx" values="99.82;89.84;99.82" keyTimes="0;0.5;1" dur="3s" begin="0s" repeatCount="indefinite"/><animate attributeName="ry" values="30.93;27.83;30.93" keyTimes="0;0.5;1" dur="3s" begin="0s" repeatCount="indefinite"/></ellipse><ellipse cx="114.59" cy="928.22" class="cls-1" rx="82.5" ry="25.57"><animate attributeName="rx" values="82.5;74.25;82.5" keyTimes="0;0.5;1" dur="3s" begin="0s" repeatCount="indefinite"/><animate attributeName="ry" values="23.01;25.57;23.01" keyTimes="0;0.5;1" dur="3s" begin="0s" repeatCount="indefinite"/></ellipse><ellipse cx="773.75" cy="928.22" class="cls-1" rx="82.5" ry="25.57"><animate attributeName="rx" values="82.5;74.25;82.5" keyTimes="0;0.5;1" dur="3s" begin="0s" repeatCount="indefinite"/><animate attributeName="ry" values="23.01;25.57;23.01" keyTimes="0;0.5;1" dur="3s" begin="0s" repeatCount="indefinite"/></ellipse><ellipse cx="444.17" cy="812.57" class="cls-1" rx="82.5" ry="25.57"><animate attributeName="rx" values="82.5;74.25;82.5" keyTimes="0;0.5;1" dur="3s" begin="0s" repeatCount="indefinite"/><animate attributeName="ry" values="23.01;25.57;23.01" keyTimes="0;0.5;1" dur="3s" begin="0s" repeatCount="indefinite"/></ellipse><path id="theMotionPath" fill="none" d="M0 0v30V0"/><g id="animate-main"><circle cx="444.17" cy="181.23" r="85.26" class="cls-2"/><path d="M444.17 266.5a85.26 85.26 0 1 0 0-170.52c3.4 2.1 46.08 29.53 47.84 81.88a100.63 100.63 0 0 1-47.83 88.63z" class="cls-3"/><path d="M444.17 298c-91 0-164.7 52.8-164.7 118a85.93 85.93 0 0 0 1.9 18 93.4 93.4 0 0 0 11.5 28.63c25.24 18.58 83.47 31.6 151.3 31.6s126.06-13 151.3-31.6a93.4 93.4 0 0 0 11.53-28.7 85.93 85.93 0 0 0 1.9-18C608.88 350.78 535.14 298 444.18 298z" class="cls-2"/><path d="M501.64 490.9c14.9-1.2 44.74-5.72 65.8-12.93 14.7-5 19.6-8 28.76-14.77a93.9 93.9 0 0 0 12.9-43.2c1.5-35.4-18.5-60.2-25.27-68.34-14.93-17.93-31.52-26.13-44.93-32.76-26.8-13.24-53.08-18.4-69-19.5 2.53.4 63.53 11.6 84 62.56 17.8 44.47-4.16 100.28-52.26 128.93z" class="cls-3"/><path d="M537.1 34.7L443.23 77l-92-42.3c-7.43 0-12.73 6.42-10.5 12.73l28.75 81.7c1.44 4.1 5.7 6.88 10.5 6.88h128.36c4.8 0 9.07-2.77 10.5-6.86l28.77-81.7c2.23-6.33-3.07-12.74-10.5-12.74z" class="cls-8"/><path d="M517.3 121.7L453.25 5.56a11.8 11.8 0 0 0-20 0l-64.1 116.14c-3.63 6.6 1.77 14.3 10 14.3h128.1c8.3 0 13.68-7.7 10.05-14.3z" class="cls-7"/><path d="M441.62 50.83l-13.4 19.4a5.58 5.58 0 0 0 0 5.87l13.52 19.56a1.78 1.78 0 0 0 1.48.8V50a1.78 1.78 0 0 0-1.6.83zM458.23 70.2l-13.4-19.37a1.78 1.78 0 0 0-1.6-.8v46.43a2 2 0 0 0 1.67-.84l13.3-19.54a5.57 5.57 0 0 0 .03-5.87z" class="cls-9"/><path d="M441.87 54.32l-11.3 16.37a4.7 4.7 0 0 0 0 5L442 92.17a1.5 1.5 0 0 0 1.25.67v-39.2a1.5 1.5 0 0 0-1.38.67z" class="cls-10"/><path d="M455.9 70.68l-11.3-16.36a1.5 1.5 0 0 0-1.37-.67v39.2a1.7 1.7 0 0 0 1.4-.7l11.24-16.5a4.7 4.7 0 0 0 .03-4.97z" class="cls-11"/><circle cx="684.17" cy="540.58" r="43.02" class="cls-5"/><path d="M684.17 599.5c-45.9 0-83.1 26.64-83.1 59.5a43.35 43.35 0 0 0 1 9.1 47.12 47.12 0 0 0 5.8 14.44c12.74 9.38 42.12 15.94 76.34 15.94s63.62-6.57 76.35-15.94a47.12 47.12 0 0 0 5.8-14.45 43.36 43.36 0 0 0 1-9.1c-.08-32.86-37.28-59.5-83.18-59.5z" class="cls-5"/><path d="M685.48 583.6a42.9 42.9 0 0 0 42.9-42.9c0-23.7-19.8-43.13-43.5-43.13 1.72 1.05 23.8 15.1 24.67 41.44a50.64 50.64 0 0 1-24.07 44.6zM714.68 696.64a122.85 122.85 0 0 0 28.53-6.2A113.16 113.16 0 0 0 762 682a47.25 47.25 0 0 0 6.5-21.73c.76-17.82-9.3-30.3-12.72-34.4-7.5-9-15.86-13.14-22.6-16.48-13.5-6.67-27-8.56-35-9.12 1.27.2 32.3 5.12 42.57 30.78 8.9 22.42-1.87 51.17-26.07 65.58z" class="cls-6"/><circle cx="204.17" cy="540.58" r="43.02" class="cls-5"/><path d="M204.17 599.5c-45.9 0-83.1 26.64-83.1 59.5a43.36 43.36 0 0 0 1 9.1 47.12 47.12 0 0 0 5.8 14.44c12.74 9.38 42.12 15.94 76.34 15.94s63.62-6.57 76.35-15.94a47.12 47.12 0 0 0 5.8-14.45 43.35 43.35 0 0 0 1-9.1c-.08-32.86-37.3-59.5-83.18-59.5z" class="cls-5"/><path d="M205.3 583.6c23.7 0 43.44-19.43 43.44-43.13s-19.58-42.9-43.28-42.9c1.7 1.05 23.56 14.86 24.45 41.2.62 17.98-9.14 35.23-24.6 44.82zM234.46 696.67a124.5 124.5 0 0 0 28.74-6.22A113.16 113.16 0 0 0 282 682a47.25 47.25 0 0 0 6.5-21.73c.76-17.82-9.3-30.3-12.72-34.4-7.5-9-15.86-13.14-22.6-16.48-13.5-6.67-27-8.56-35-9.12 1.27.2 32.3 5.12 42.57 30.78 8.9 22.42-2.1 51.2-26.3 65.6z" class="cls-6"/><circle cx="444.17" cy="678.28" r="31.39" class="cls-7"/><path d="M444.17 721.26c-33.5 0-60.63 19.44-60.63 43.42a31.63 31.63 0 0 0 .7 6.63 34.38 34.38 0 0 0 4.23 10.55c9.3 6.84 30.73 11.63 55.7 11.63s46.4-4.8 55.7-11.63a34.38 34.38 0 0 0 4.23-10.54 31.63 31.63 0 0 0 .7-6.62c0-23.98-27.15-43.42-60.63-43.42z" class="cls-7"/><circle cx="773.75" cy="791.84" r="31.39" class="cls-7"/><path d="M773.75 834.82c-33.5 0-60.63 19.44-60.63 43.42a31.64 31.64 0 0 0 .7 6.63A34.38 34.38 0 0 0 718 895.4c9.3 6.85 30.73 11.64 55.7 11.64s46.4-4.8 55.7-11.63a34.38 34.38 0 0 0 4.23-10.53 31.63 31.63 0 0 0 .7-6.63c.05-23.98-27.1-43.42-60.58-43.42z" class="cls-7"/><circle cx="114.59" cy="790.29" r="31.39" class="cls-7"/><path d="M114.6 833.27c-33.5 0-60.6 19.44-60.6 43.42a31.63 31.63 0 0 0 .7 6.62 34.38 34.38 0 0 0 4.23 10.54c9.3 6.84 30.73 11.63 55.7 11.63s46.4-4.8 55.7-11.64a34.38 34.38 0 0 0 4.23-10.54 31.64 31.64 0 0 0 .7-6.63c-.04-24-27.18-43.43-60.67-43.43z" class="cls-7"/><path d="M113.9 821.67c17.53.44 32.43-13.93 32.43-31.38s-14.94-31.76-32.44-31.4c1.25.8 17.07 10.95 17.72 30.36a36.6 36.6 0 0 1-17.73 32.4zM135.84 904.28a136.54 136.54 0 0 0 19.58-3.77 51.86 51.86 0 0 0 8.88-3.23 48.7 48.7 0 0 0 6-3.4 33.38 33.38 0 0 0 4.93-17.18c0-12.16-7-20.4-9.7-23.55-5.45-6.4-11.36-9.4-16.4-12a74.58 74.58 0 0 0-25-7.4c1 .18 23.13 4.25 30.44 23.1 6.36 16.4-1.37 36.95-18.73 47.43zM443.52 709.66c17.45 0 32.25-13.83 32.25-31.28s-15.52-32.78-32.87-31.46c1.26.78 18.35 10.8 19 30.2.44 13.25-7 25.48-18.38 32.54zM465.87 792.2a140.38 140.38 0 0 0 19.83-3.82 51.86 51.86 0 0 0 8.88-3.24 48.7 48.7 0 0 0 6-3.4 33.38 33.38 0 0 0 4.93-17.18c0-12.15-7-20.4-9.7-23.54-5.44-6.4-11.35-9.4-16.4-12a76.9 76.9 0 0 0-25.22-7.22c1 .17 23.38 4.07 30.7 22.93 6.34 16.4-1.64 37-19 47.48zM773.75 823.23c17.43 0 32.3-13.78 32.3-31.2s-14.87-31.57-32.3-31.57c1.25.78 17.8 10.93 18.46 30.3.45 13.24-7.08 25.42-18.45 32.47zM796 905.7a141.82 141.82 0 0 0 20-3.8 51.8 51.8 0 0 0 8.87-3.24 48.65 48.65 0 0 0 6-3.4 33.34 33.34 0 0 0 4.93-17.15c0-12.12-7-20.36-9.7-23.5-5.44-6.4-11.34-9.4-16.37-11.95a78.7 78.7 0 0 0-25.44-7.18c1 .17 23.6 4 30.9 22.87 6.3 16.34-1.88 36.9-19.2 47.37z" class="cls-8"/></g><animateMotion dur="3s" repeatCount="indefinite" xlink:href="#animate-main"><mpath xlink:href="#theMotionPath"/></animateMotion><path d="M194.28 854.82l151.64-58.3M694.5 854.82l-151.65-58.3M276.07 607.1l102.05-39.24M612.7 607.1l-102.05-39.24M378.4 746.08l-64.97-24.98M504.8 746.08l64.97-24.98" class="cls-4"/><path d="M640.7 94.06L707.74 27M682.22 154.82l85.6-40.8M206.73 166.8l-79.45-40.78M257.62 124.94L200.05 65.6" class="cls-12"/></svg></svg>