<svg xmlns="http://www.w3.org/2000/svg" width="99.328" height="64.396" viewBox="0 0 99.328 64.396"><defs><style>.a{fill:#f9a21c;}</style></defs><g transform="translate(0 0)"><g transform="translate(17.791)"><path class="a" d="M-175.918,488.3h-57.265a1.248,1.248,0,0,1-1.249-1.249,1.248,1.248,0,0,1,1.249-1.249h57.265a4.75,4.75,0,0,0,4.745-4.745v-40.78a4.75,4.75,0,0,0-4.745-4.745h-67.053a4.75,4.75,0,0,0-4.745,4.745v20.25a1.248,1.248,0,0,1-1.249,1.249,1.248,1.248,0,0,1-1.249-1.249v-20.25a7.251,7.251,0,0,1,7.242-7.242h67.053a7.251,7.251,0,0,1,7.242,7.242v40.78A7.25,7.25,0,0,1-175.918,488.3Z" transform="translate(250.213 -433.035)"/><g transform="translate(35.245 52.767)"><path class="a" d="M-200.049,505.1h-8.55a1.249,1.249,0,0,1-1.249-1.249v-9.132a1.248,1.248,0,0,1,1.249-1.249h8.55a1.249,1.249,0,0,1,1.249,1.249v9.132A1.25,1.25,0,0,1-200.049,505.1Zm-7.3-2.5h6.052v-6.634h-6.052Z" transform="translate(209.848 -493.467)"/></g><g transform="translate(27.117 61.898)"><path class="a" d="M-193.1,506.423h-24.806a1.25,1.25,0,0,1-1.249-1.249,1.249,1.249,0,0,1,1.249-1.249H-193.1a1.248,1.248,0,0,1,1.249,1.249A1.249,1.249,0,0,1-193.1,506.423Z" transform="translate(219.157 -503.925)"/></g><g transform="translate(16.129 11.105)"><g transform="translate(30.155 6.123)"><path class="a" d="M-195.957,465.25a1.247,1.247,0,0,1-.846-.331,1.25,1.25,0,0,1-.072-1.765l9.207-9.986a1.249,1.249,0,0,1,1.765-.072,1.25,1.25,0,0,1,.072,1.765l-9.207,9.987A1.245,1.245,0,0,1-195.957,465.25Z" transform="translate(197.205 -452.766)"/></g><g transform="translate(19.126 13.147)"><path class="a" d="M-202.127,467.041a1.243,1.243,0,0,1-.623-.168l-6.461-3.733a1.249,1.249,0,0,1-.457-1.706,1.248,1.248,0,0,1,1.705-.457l6.461,3.733a1.249,1.249,0,0,1,.457,1.706A1.249,1.249,0,0,1-202.127,467.041Z" transform="translate(209.836 -460.81)"/></g><g transform="translate(3.401 13.718)"><path class="a" d="M-226.6,474.342a1.244,1.244,0,0,1-.906-.39,1.249,1.249,0,0,1,.047-1.766l10.956-10.381a1.25,1.25,0,0,1,1.766.047,1.249,1.249,0,0,1-.047,1.766L-225.737,474A1.247,1.247,0,0,1-226.6,474.342Z" transform="translate(227.845 -461.463)"/></g><g transform="translate(13.744 8.871)"><path class="a" d="M-211.958,464A4.046,4.046,0,0,1-216,459.955a4.046,4.046,0,0,1,4.042-4.042,4.046,4.046,0,0,1,4.042,4.042A4.047,4.047,0,0,1-211.958,464Zm0-5.586a1.546,1.546,0,0,0-1.545,1.545,1.546,1.546,0,0,0,1.545,1.544,1.545,1.545,0,0,0,1.544-1.544A1.546,1.546,0,0,0-211.958,458.41Z" transform="translate(216 -455.913)"/></g><g transform="translate(25.308 15.566)"><path class="a" d="M-198.714,471.664a4.046,4.046,0,0,1-4.042-4.042,4.047,4.047,0,0,1,4.042-4.042,4.047,4.047,0,0,1,4.042,4.042A4.046,4.046,0,0,1-198.714,471.664Zm0-5.586a1.546,1.546,0,0,0-1.545,1.544,1.546,1.546,0,0,0,1.545,1.545,1.546,1.546,0,0,0,1.544-1.545A1.545,1.545,0,0,0-198.714,466.078Z" transform="translate(202.756 -463.58)"/></g><g transform="translate(38.605 1.119)"><path class="a" d="M-183.485,455.119a4.046,4.046,0,0,1-4.042-4.042,4.046,4.046,0,0,1,4.042-4.042,4.046,4.046,0,0,1,4.042,4.042A4.046,4.046,0,0,1-183.485,455.119Zm0-5.586a1.546,1.546,0,0,0-1.544,1.545,1.546,1.546,0,0,0,1.544,1.545,1.547,1.547,0,0,0,1.545-1.545A1.547,1.547,0,0,0-183.485,449.532Z" transform="translate(187.527 -447.035)"/></g><g transform="translate(2.958)"><path class="a" d="M-183.281,478.528H-227.1a1.249,1.249,0,0,1-1.249-1.249V447a1.249,1.249,0,0,1,1.249-1.25,1.249,1.249,0,0,1,1.249,1.25v29.028h42.573a1.249,1.249,0,0,1,1.249,1.249A1.249,1.249,0,0,1-183.281,478.528Z" transform="translate(228.353 -445.753)"/></g><g transform="translate(0 0)"><path class="a" d="M-224.576,451.209a1.245,1.245,0,0,1-.883-.366l-2.076-2.075-2.075,2.075a1.249,1.249,0,0,1-1.766,0,1.248,1.248,0,0,1,0-1.766l2.957-2.958a1.25,1.25,0,0,1,1.766,0l2.957,2.958a1.248,1.248,0,0,1,0,1.766A1.249,1.249,0,0,1-224.576,451.209Z" transform="translate(231.74 -445.754)"/></g><g transform="translate(43.822 27.319)"><path class="a" d="M-180.3,485.454a1.241,1.241,0,0,1-.883-.366,1.247,1.247,0,0,1,0-1.766l2.075-2.075-2.075-2.076a1.247,1.247,0,0,1,0-1.766,1.249,1.249,0,0,1,1.766,0l2.957,2.958a1.249,1.249,0,0,1,0,1.766l-2.958,2.957A1.241,1.241,0,0,1-180.3,485.454Z" transform="translate(181.552 -477.041)"/></g></g></g><g transform="translate(0 26.383)"><g transform="translate(0 17.623)"><path class="a" d="M-235.767,503.824a1.249,1.249,0,0,1-1.249-1.249V492.116a6.192,6.192,0,0,0-6.185-6.185h-18.7a6.193,6.193,0,0,0-6.186,6.185v10.459a1.249,1.249,0,0,1-1.249,1.249,1.249,1.249,0,0,1-1.249-1.249V492.116a8.692,8.692,0,0,1,8.682-8.682h18.7a8.692,8.692,0,0,1,8.684,8.682v10.459A1.249,1.249,0,0,1-235.767,503.824Z" transform="translate(270.588 -483.434)"/></g><g transform="translate(10.507)"><path class="a" d="M-251.027,478.307a7.536,7.536,0,0,1-7.528-7.527,7.537,7.537,0,0,1,7.528-7.528,7.537,7.537,0,0,1,7.528,7.528A7.536,7.536,0,0,1-251.027,478.307Zm0-12.559a5.036,5.036,0,0,0-5.03,5.031,5.036,5.036,0,0,0,5.03,5.03,5.036,5.036,0,0,0,5.031-5.03A5.037,5.037,0,0,0-251.027,465.748Z" transform="translate(258.555 -463.251)"/></g><g transform="translate(6.952 26.202)"><path class="a" d="M-261.377,505.07a1.249,1.249,0,0,1-1.249-1.249v-9.313a1.248,1.248,0,0,1,1.249-1.249,1.248,1.248,0,0,1,1.249,1.249v9.313A1.249,1.249,0,0,1-261.377,505.07Z" transform="translate(262.626 -493.259)"/><g transform="translate(19.668)"><path class="a" d="M-238.852,505.07a1.249,1.249,0,0,1-1.249-1.249v-9.313a1.248,1.248,0,0,1,1.249-1.249,1.248,1.248,0,0,1,1.249,1.249v9.313A1.249,1.249,0,0,1-238.852,505.07Z" transform="translate(240.101 -493.259)"/></g></g></g></g></svg>