<svg xmlns="http://www.w3.org/2000/svg" width="116.385" height="113.563" viewBox="0 0 116.385 113.563"><defs><style>.a{fill:#f9a21c;}</style></defs><g transform="translate(94.792 -680.306)"><g transform="translate(-46.451 680.306)"><path class="a" d="M-56.466,680.542a8.666,8.666,0,0,1,7.992,2.191c5.95,5.7,5.858,16.492-.2,22.088A8.58,8.58,0,0,1-59.6,705.4c-4.937-3.787-6.265-10.851-4.577-16.607C-63.028,685.107-60.4,681.456-56.466,680.542Zm-.59,2.762c-4.525,2.391-6,8.17-5.189,12.913.641,3.568,2.821,7.458,6.6,8.323,3.048.7,5.927-1.436,7.339-3.993,2.735-4.748,2.409-11.36-1.31-15.509A6.278,6.278,0,0,0-57.056,683.3Z" transform="translate(64.868 -680.306)"/></g><g transform="translate(-70.886 691.997)"><path class="a" d="M-78.036,702.935c2.821-7.593,9.8-13.095,17.483-15.206a8.619,8.619,0,0,1,2.3-.171c.795,3.037.464,6.337,1.877,9.21a36.118,36.118,0,0,0,6.653,8.753c.743.727.36,1.893.481,2.821-.047.9.212,2.42-1.048,2.573a37.966,37.966,0,0,0-10.336,3.325l-1.008-.326c-.646-2.071-.525-4.73-2.488-6.115a2.725,2.725,0,0,0-2.775.984c-1.646,2.024-1.275,4.827-2.035,7.127a86.95,86.95,0,0,1-9.5,3.712c-.252-.108-.761-.32-1.013-.428A29.965,29.965,0,0,1-78.036,702.935Zm3.85-2.444c-2.963,4.829-3.649,10.686-3.26,16.242,2.121-.83,4.255-1.63,6.389-2.42.338-2.506.767-5.16,2.4-7.19,1.447-1.8,4.4-2.53,6.3-1.019,1.591,1.22,2.2,3.228,2.683,5.085a33.259,33.259,0,0,1,8.021-2.51c-.081-.795.16-1.756-.6-2.3a34.64,34.64,0,0,1-6.333-8.6c-1.179-2.373-1.373-5.068-1.63-7.659A24.788,24.788,0,0,0-74.187,700.491Z" transform="translate(79.994 -687.543)"/></g><g transform="translate(-32.058 691.954)"><path class="a" d="M-48.122,695.159c.824-2.4.315-5.124,1.38-7.425.25-.057.743-.16.989-.218,7.924,1.677,15.182,7.134,18.358,14.68,3.872,9.279,2.065,19.776-1.157,28.964a1.178,1.178,0,0,1-2.317,0c-.961-3.386-2.283-7.094-5.6-8.845-.016-4,.447-8.152-.921-11.99-.486-1.538-1.927-2.985-3.672-2.5-1.893,1.423-1.8,4.055-2.449,6.115-.234.081-.709.241-.95.315A55.168,55.168,0,0,0-52,711.48c-1.338-.354-2.911-.228-3.958-1.281.074-1.389.079-2.78.074-4.176C-52.819,702.8-49.61,699.445-48.122,695.159Zm3.2-5c-.309,2.4-.372,4.892-1.389,7.127a33.842,33.842,0,0,1-7.145,9.68c0,.578-.006,1.155-.006,1.733a31.689,31.689,0,0,1,7.987,2.528c.565-2.145,1.344-4.588,3.517-5.606,2.494-1.047,5.355.583,6.391,2.94,1.825,3.832,1.659,8.232,1.515,12.373a13.509,13.509,0,0,1,4.291,5.835c2.289-7.305,3.176-15.457.475-22.767C-31.819,697.156-38.037,692.185-44.919,690.154Z" transform="translate(55.959 -687.516)"/></g><g transform="translate(-64.486 716.753)"><path class="a" d="M-50.349,703a28.354,28.354,0,0,1,20.8,6.472,28.165,28.165,0,0,1,10.218,21.486,28.3,28.3,0,0,1-5.858,17.689A28.081,28.081,0,0,1-47.546,759.68a27.629,27.629,0,0,1-16.641-5.263,28.416,28.416,0,0,1-11.774-21.224,28.371,28.371,0,0,1,5.034-18.169A28.673,28.673,0,0,1-50.349,703Zm-.9,2.6c-10.934,1.281-20.229,10.418-21.974,21.242a25.98,25.98,0,0,0,5.457,20.92,25.543,25.543,0,0,0,20.184,9.478,25.359,25.359,0,0,0,18.214-7.517,25.644,25.644,0,0,0,7.58-18.809A25.819,25.819,0,0,0-32.2,710.448,25.838,25.838,0,0,0-51.247,705.6Z" transform="translate(76.032 -702.867)"/></g><g transform="translate(-91.241 722.868)"><path class="a" d="M-85.659,717.454c6.092-6.236,14.731-9.085,23.111-10.612.956-.137,2.294-.561,2.8.594.36.783-.538,1.3-.945,1.83a16.5,16.5,0,0,0-4.09,5.522c-.412,1.04-.331,2.224-.811,3.242-3.593,1.729-7.386,3.478-10.063,6.533a3.6,3.6,0,0,0-.624,3.948c2.231,1.3,4.764.074,6.961-.67,1.179,1.294.8,3.142,1.069,4.732.162,2.712,1.145,5.257,1.814,7.861a32.181,32.181,0,0,1-4.131,2.161c-3.575-.869-7.161-1.956-10.88-1.893-3.312-.018-6.218,1.774-9.3,2.729-1.632-1.636-1.528-4.158-1.758-6.3A24.882,24.882,0,0,1-85.659,717.454Zm-.194,3.964c-4.137,5.371-4.977,12.551-3.838,19.079a28.563,28.563,0,0,1,6.583-2.134c3.856-.4,7.683.475,11.391,1.448.853.412,1.636-.137,2.391-.475a37.236,37.236,0,0,1-1.5-8.363c-2.186.6-4.806,1.063-6.7-.522-1.951-1.715-1.888-4.908-.355-6.893,2.546-3.364,6.4-5.394,10.126-7.179A15.621,15.621,0,0,1-64.5,709.69C-72.5,711.412-80.79,714.668-85.853,721.419Z" transform="translate(92.594 -706.653)"/></g><g transform="translate(-7.466 727.425)"><path class="a" d="M-33.773,709.608a2.844,2.844,0,0,1,2.094.142c5.766,2.586,11.121,6.6,14.21,12.219a26.654,26.654,0,0,1,2.082,19.743c-.223.687-.457,1.767-1.367,1.785-2.368-.67-4.48-2.043-6.866-2.672-4.37-.738-8.78.2-13.026,1.2a11.31,11.31,0,0,1-4.09-2.58c1.281-3.519,2.415-7.174,2.328-10.967.436-.372.79-1.355,1.51-.99,1.843.6,3.788,1.6,5.767.973a2.344,2.344,0,0,0,.88-2.855c-.943-2.544-3.467-3.866-5.371-5.6C-34.924,716.558-34.455,713.064-33.773,709.608Zm1.934,2.774c-.326,2.215-.716,4.428-1.11,6.636,1.916,1.573,3.992,3.221,4.926,5.6.835,2.116.126,4.971-2.026,5.995-1.9.887-4.05.354-5.989-.115a34.458,34.458,0,0,1-1.848,8.226c.743.338,1.51.939,2.373.567a32.686,32.686,0,0,1,11.888-.955,31.092,31.092,0,0,1,6.064,2.3,25.548,25.548,0,0,0-.985-15.353C-20.948,719.361-26.16,715.032-31.84,712.382Z" transform="translate(40.736 -709.473)"/></g><g transform="translate(-94.792 759.267)"><path class="a" d="M-83.282,729.707a13.361,13.361,0,0,1,9.68.835,8.665,8.665,0,0,1,4,10.228c-1.556,5.292-6.434,9.034-11.657,10.31-3.507.8-7.512.428-10.418-1.848a8.781,8.781,0,0,1-2.724-9.308C-92.881,734.822-88.3,731.1-83.282,729.707Zm.04,2.533a14.121,14.121,0,0,0-7.535,5.6c-1.241,1.934-2.042,4.388-1.27,6.654a6.884,6.884,0,0,0,6.2,4.485c6,.538,12.436-3.386,14.043-9.324a6.205,6.205,0,0,0-3.233-7.111A10.935,10.935,0,0,0-83.241,732.24Z" transform="translate(94.792 -729.184)"/></g><g transform="translate(-3.834 760.83)"><path class="a" d="M-31.542,730.479c7.631-1.711,16.321,3.473,18.2,11.132a8.633,8.633,0,0,1-5.365,10.245c-5.63,2.066-12.03-.3-16.087-4.433-2.512-2.762-4.32-6.607-3.485-10.394A8.641,8.641,0,0,1-31.542,730.479Zm.594,2.346a6.422,6.422,0,0,0-5.153,6.447c.869,7.26,9.152,12.4,16.085,10.48a6.279,6.279,0,0,0,4.3-7.62C-17.355,735.787-24.585,731.474-30.947,732.824Z" transform="translate(38.488 -730.151)"/></g><g transform="translate(-77.305 764.109)"><path class="a" d="M-71.908,734.133a16.753,16.753,0,0,1,4.423-1.951c2.1,3.347,5.223,5.8,8.237,8.255.011.252.029.761.034,1.019-1.355,1.338-3.174,2.344-3.964,4.158-.572,1.391.835,2.735,2.157,2.826,2.443.292,4.77-.847,7-1.709,1.951,1.385,3.622,3.111,5.475,4.615,1.006.961,2.443,1.751,2.6,3.278-5.887,4.412-13.266,7.323-20.714,6.425a25.915,25.915,0,0,1-17.307-9.908c1.855-2.409,4.972-3.381,6.821-5.8C-74.528,742.079-73.234,738.034-71.908,734.133Zm1.929,1.745a33.517,33.517,0,0,1-5.166,10.891c-1.47,1.963-3.661,3.141-5.56,4.617,4.079,3.987,9.381,6.951,15.155,7.346,5.795.515,11.509-1.6,16.274-4.788-1.733-1.452-3.409-2.974-5.108-4.462-2.42.972-5.081,1.824-7.7,1.224a4.64,4.64,0,0,1-3.569-5.2,8.984,8.984,0,0,1,3.129-4.525,39.962,39.962,0,0,1-5.893-5.9C-68.943,735.339-69.465,735.607-69.979,735.877Z" transform="translate(83.967 -732.181)"/></g><g transform="translate(-43.535 764.876)"><path class="a" d="M-34.979,736.625c1.412-1.212,2.38-2.866,3.89-3.969,1.367.738,2.711,1.515,4.01,2.373a33.6,33.6,0,0,0,4.245,10.648c1.641,2.607,4.536,3.947,6.738,5.984a1.525,1.525,0,0,1-.435,1.624c-5.817,6.082-14.605,9.594-23.014,7.969-9.421-1.716-17.03-8.3-23.077-15.371-1.132-.858.131-2.62,1.344-2,3.359.869,7.213,1.465,10.337-.446,3.518,2.271,7.157,4.771,11.4,5.36,1.443.241,3.381-.761,3.307-2.4-.594-2.071-2.522-3.226-3.93-4.685.006-.252.018-.755.029-1.006C-38.487,739.268-36.576,738.142-34.979,736.625Zm-1.882,4.687c1.481,1.51,3.077,3.3,3.066,5.554a5,5,0,0,1-5.234,4.313c-4.434-.137-8.376-2.569-12.014-4.892a15.884,15.884,0,0,1-7.305.738c5.52,5.807,12.408,11.064,20.589,12.042,6.871.9,13.73-2.065,18.73-6.657-1.843-1.443-3.885-2.724-5.292-4.635a31.887,31.887,0,0,1-4.707-10.543c-.144-.858-1.06-1.157-1.643-1.659A36.134,36.134,0,0,1-36.861,741.312Z" transform="translate(63.063 -732.656)"/></g></g></svg>