<svg xmlns="http://www.w3.org/2000/svg" width="150.349" height="83.788" viewBox="0 0 150.349 83.788"><defs><style>.a{fill:#f9a21c;}.b{fill:none;stroke:#eda541;stroke-width:3px;}</style></defs><g transform="translate(-838.029 -2384.168)"><g transform="translate(894.305 2384.168)"><g transform="translate(0 0)"><g transform="translate(0 0)"><path class="a" d="M-208.737,250.769h-26a1.273,1.273,0,0,1-1.273-1.273v-8.382a1.273,1.273,0,0,1,1.273-1.273,1.273,1.273,0,0,1,1.273,1.273v7.109h23.453v-7.109a1.273,1.273,0,0,1,1.273-1.273,1.273,1.273,0,0,1,1.273,1.273V249.5A1.273,1.273,0,0,1-208.737,250.769Z" transform="translate(236.009 -239.841)"/><path class="a" d="M-200.915,277.4a1.268,1.268,0,0,1-.762-.255,1.272,1.272,0,0,1-.255-1.781l2.889-3.854L-203,263.2a1.272,1.272,0,0,1,.6-1.7,1.274,1.274,0,0,1,1.7.6l4.288,9.01a1.271,1.271,0,0,1-.131,1.31l-3.352,4.469A1.265,1.265,0,0,1-200.915,277.4Z" transform="translate(244.983 -233.963)"/><path class="a" d="M-198.55,271.793a1.281,1.281,0,0,1-.591-.145,1.274,1.274,0,0,1-.535-1.72l2-3.8-3.666-5.554a1.274,1.274,0,0,1,.362-1.764,1.274,1.274,0,0,1,1.763.362l4.08,6.181a1.274,1.274,0,0,1,.065,1.292l-2.347,4.472A1.269,1.269,0,0,1-198.55,271.793Z" transform="translate(245.411 -234.723)"/><path class="a" d="M-197.43,293.859a2.169,2.169,0,0,1-1.625-.726c-1.816-1.99-.818-8.63-.173-11.961-.936-1.184-3.45-4.342-4.568-5.461-4.176-3.539-9.991-2.844-13.678-1.152-2.355,1.079-3.128,2.221-3.13,2.494,1.852,5.034,2.131,8.983.835,11.739a6.3,6.3,0,0,1-3.609,3.312,1.272,1.272,0,0,1-1-.065,1.28,1.28,0,0,1-.643-.776c-1.291-4.416-5.425-11.032-6.21-11.916-8.18-10.859-2.328-31.029-2.074-31.882a1.274,1.274,0,0,1,1.581-.859,1.273,1.273,0,0,1,.859,1.582c-.059.2-5.739,19.795,1.6,29.548a52.917,52.917,0,0,1,6.182,11.315,3.9,3.9,0,0,0,1.012-1.342c.684-1.455,1.081-4.333-.914-9.775-.255-.622-.583-2.382,2.186-4.386,4-2.9,12.72-4.808,18.731.294,1.568,1.563,5.061,6.032,5.209,6.222a1.276,1.276,0,0,1,.244,1.037c-.81,3.979-1.121,8.027-.8,9.666A39.717,39.717,0,0,0-192.83,282c-.964-2.839-4.192-11.917-4.226-12.012a1.273,1.273,0,0,1,.773-1.625,1.275,1.275,0,0,1,1.627.773c.146.412,3.588,10.094,4.365,12.427a1.268,1.268,0,0,1,.041.65c-.266,1.334-3.352,8.458-6.158,11.266a1.287,1.287,0,0,1-.76.367A2.593,2.593,0,0,1-197.43,293.859Z" transform="translate(236.127 -238.009)"/><path class="a" d="M-192.467,269.4a1.282,1.282,0,0,1-.239-.023,1.274,1.274,0,0,1-1.012-1.489l1.171-6.151-7.592-4.352-1.507-.7c-1.1-.351-11.431-3.728-15.309-8.05a1.271,1.271,0,0,1,.1-1.8,1.271,1.271,0,0,1,1.8.1c3.546,3.951,14.151,7.313,14.258,7.347a.972.972,0,0,1,.157.061l1.678.782,8.475,4.852a1.272,1.272,0,0,1,.617,1.343l-1.34,7.042A1.275,1.275,0,0,1-192.467,269.4Z" transform="translate(241.12 -238.021)"/><path class="a" d="M-213.381,298.509A11.33,11.33,0,0,1-224.7,287.193a11.33,11.33,0,0,1,11.316-11.316,11.329,11.329,0,0,1,11.315,11.316A11.329,11.329,0,0,1-213.381,298.509Zm0-20.086a8.78,8.78,0,0,0-8.77,8.77,8.78,8.78,0,0,0,8.77,8.77,8.779,8.779,0,0,0,8.769-8.77A8.779,8.779,0,0,0-213.381,278.423Z" transform="translate(239.096 -230.007)"/></g><g transform="translate(43.007 1.9)"><g transform="translate(10.14)"><path class="a" d="M-182.983,281.5a1.273,1.273,0,0,1-1.273-1.273V258.592a1.272,1.272,0,0,1,1.273-1.273,1.273,1.273,0,0,1,1.273,1.273v21.639A1.273,1.273,0,0,1-182.983,281.5Z" transform="translate(196.985 -236.972)"/><path class="a" d="M-188.983,272.138a1.273,1.273,0,0,1-1.273-1.273v-1.273a1.272,1.272,0,0,1,1.273-1.273,1.273,1.273,0,0,1,1.273,1.273v1.273A1.273,1.273,0,0,1-188.983,272.138Z" transform="translate(195.348 -233.97)"/><path class="a" d="M-187.891,270.954a1.273,1.273,0,0,1-1.273-1.273v-7.637h-3.819a1.273,1.273,0,0,1-1.16-.747,1.272,1.272,0,0,1,.2-1.363l8.91-10.183a1.31,1.31,0,0,1,1.916,0l8.91,10.183a1.272,1.272,0,0,1,.2,1.363,1.273,1.273,0,0,1-1.158.747h-6.364a1.273,1.273,0,0,1-1.273-1.273,1.272,1.272,0,0,1,1.273-1.273h3.559l-6.1-6.978-6.106,6.978h2.287a1.273,1.273,0,0,1,1.273,1.273v8.91A1.273,1.273,0,0,1-187.891,270.954Z" transform="translate(194.256 -239.151)"/><path class="a" d="M-166.983,290.052a1.273,1.273,0,0,1-1.273-1.273V250.592a1.272,1.272,0,0,1,1.273-1.273,1.273,1.273,0,0,1,1.273,1.273v38.187A1.273,1.273,0,0,1-166.983,290.052Z" transform="translate(201.352 -239.155)"/><path class="a" d="M-172.983,269.138a1.273,1.273,0,0,1-1.273-1.273v-1.273a1.272,1.272,0,0,1,1.273-1.273,1.273,1.273,0,0,1,1.273,1.273v1.273A1.273,1.273,0,0,1-172.983,269.138Z" transform="translate(199.714 -234.789)"/><path class="a" d="M-172.983,274.138a1.273,1.273,0,0,1-1.273-1.273v-1.273a1.272,1.272,0,0,1,1.273-1.273,1.273,1.273,0,0,1,1.273,1.273v1.273A1.273,1.273,0,0,1-172.983,274.138Z" transform="translate(199.714 -233.424)"/><path class="a" d="M-172.983,264.138a1.273,1.273,0,0,1-1.273-1.273v-1.273a1.272,1.272,0,0,1,1.273-1.273,1.273,1.273,0,0,1,1.273,1.273v1.273A1.273,1.273,0,0,1-172.983,264.138Z" transform="translate(199.714 -236.153)"/><path class="a" d="M-171.891,262.954a1.273,1.273,0,0,1-1.273-1.273v-7.637h-3.819a1.273,1.273,0,0,1-1.16-.747,1.272,1.272,0,0,1,.2-1.363l8.91-10.183a1.31,1.31,0,0,1,1.916,0l8.91,10.183a1.272,1.272,0,0,1,.2,1.363,1.273,1.273,0,0,1-1.158.747h-6.364a1.273,1.273,0,0,1-1.273-1.273,1.272,1.272,0,0,1,1.273-1.273h3.559l-6.1-6.978-6.106,6.978h2.287a1.273,1.273,0,0,1,1.273,1.273v8.91A1.273,1.273,0,0,1-171.891,262.954Z" transform="translate(198.622 -241.334)"/></g><g transform="translate(0 55.601)"><g transform="translate(24.26)"><g transform="translate(0 14.34)"><g transform="translate(0 5.056)"><path class="a" d="M-169.759,306.948c-6.456,0-13.4-1.7-13.4-5.423a1.273,1.273,0,0,1,1.273-1.273,1.273,1.273,0,0,1,1.273,1.273c0,.836,3.8,2.877,10.858,2.877s10.856-2.04,10.856-2.877a1.273,1.273,0,0,1,1.273-1.273,1.273,1.273,0,0,1,1.273,1.273C-156.357,305.252-163.3,306.948-169.759,306.948Z" transform="translate(183.163 -300.253)"/></g><path class="a" d="M-169.759,302.975c-6.456,0-13.4-1.7-13.4-5.421a1.273,1.273,0,0,1,1.273-1.273,1.273,1.273,0,0,1,1.273,1.273c0,.835,3.8,2.875,10.858,2.875s10.856-2.04,10.856-2.875a1.273,1.273,0,0,1,1.273-1.273,1.273,1.273,0,0,1,1.273,1.273C-156.357,301.278-163.3,302.975-169.759,302.975Z" transform="translate(183.163 -296.281)"/><path class="a" d="M-169.759,308.163c-6.456,0-13.4-1.7-13.4-5.423v-5.187a1.273,1.273,0,0,1,1.273-1.273,1.273,1.273,0,0,1,1.273,1.273v5.187c0,.835,3.8,2.877,10.858,2.877s10.856-2.042,10.856-2.877v-5.187a1.273,1.273,0,0,1,1.273-1.273,1.273,1.273,0,0,1,1.273,1.273v5.187C-156.357,306.467-163.3,308.163-169.759,308.163Z" transform="translate(183.163 -296.281)"/></g><g transform="translate(0 9.206)"><path class="a" d="M-169.759,298.942c-6.456,0-13.4-1.7-13.4-5.422a1.273,1.273,0,0,1,1.273-1.273,1.273,1.273,0,0,1,1.273,1.273c0,.836,3.8,2.877,10.858,2.877s10.856-2.04,10.856-2.877a1.273,1.273,0,0,1,1.273-1.273,1.273,1.273,0,0,1,1.273,1.273C-156.357,297.246-163.3,298.942-169.759,298.942Z" transform="translate(183.163 -292.247)"/><path class="a" d="M-169.759,304.129c-6.456,0-13.4-1.7-13.4-5.421V293.52a1.273,1.273,0,0,1,1.273-1.273,1.273,1.273,0,0,1,1.273,1.273v5.188c0,.835,3.8,2.875,10.858,2.875s10.856-2.04,10.856-2.875V293.52a1.273,1.273,0,0,1,1.273-1.273,1.273,1.273,0,0,1,1.273,1.273v5.188C-156.357,302.433-163.3,304.129-169.759,304.129Z" transform="translate(183.163 -292.247)"/></g><path class="a" d="M-169.759,295.86c-6.456,0-13.4-1.7-13.4-5.423s6.947-5.422,13.4-5.422,13.4,1.7,13.4,5.422S-163.3,295.86-169.759,295.86Zm0-8.3c-7.053,0-10.858,2.042-10.858,2.877s3.8,2.877,10.858,2.877,10.856-2.042,10.856-2.877S-162.708,287.561-169.759,287.561Z" transform="translate(183.163 -285.015)"/><path class="a" d="M-169.759,300.156c-6.456,0-13.4-1.7-13.4-5.423v-5.186a1.273,1.273,0,0,1,1.273-1.273,1.273,1.273,0,0,1,1.273,1.273v5.186c0,.835,3.8,2.877,10.858,2.877s10.856-2.042,10.856-2.877v-5.186a1.273,1.273,0,0,1,1.273-1.273,1.273,1.273,0,0,1,1.273,1.273v5.186C-156.357,298.459-163.3,300.156-169.759,300.156Z" transform="translate(183.163 -284.125)"/></g><g transform="translate(0 10.256)"><g transform="translate(0 9.206)"><path class="a" d="M-188.818,307c-6.456,0-13.4-1.7-13.4-5.424a1.273,1.273,0,0,1,1.273-1.273,1.273,1.273,0,0,1,1.273,1.273c0,.835,3.8,2.878,10.858,2.878s10.857-2.043,10.857-2.878a1.273,1.273,0,0,1,1.273-1.273,1.273,1.273,0,0,1,1.273,1.273C-175.416,305.3-182.364,307-188.818,307Z" transform="translate(202.222 -300.304)"/></g><path class="a" d="M-188.818,303.916c-6.456,0-13.4-1.7-13.4-5.421s6.947-5.423,13.4-5.423,13.4,1.7,13.4,5.423S-182.364,303.916-188.818,303.916Zm0-8.3c-7.053,0-10.858,2.04-10.858,2.877s3.8,2.875,10.858,2.875,10.857-2.04,10.857-2.875S-181.767,295.618-188.818,295.618Z" transform="translate(202.222 -293.072)"/><path class="a" d="M-188.818,308.213c-6.456,0-13.4-1.7-13.4-5.421V297.6a1.273,1.273,0,0,1,1.273-1.273,1.273,1.273,0,0,1,1.273,1.273v5.187c0,.835,3.8,2.875,10.858,2.875s10.857-2.04,10.857-2.875V297.6a1.273,1.273,0,0,1,1.273-1.273,1.273,1.273,0,0,1,1.273,1.273v5.187C-175.416,306.516-182.364,308.213-188.818,308.213Z" transform="translate(202.222 -292.182)"/></g></g></g></g></g><path class="b" d="M14.862,0H-2.564V-33.636q0-6.127.261-11.212a37.27,37.27,0,0,1-4,4.085l-7.214,5.954L-22.424-45.76-.608-63.534H14.862Z" transform="translate(862.563 2460)"/></g></svg>