<svg xmlns="http://www.w3.org/2000/svg" width="83.634" height="90.953" viewBox="0 0 83.634 90.953"><defs><style>.a{fill:#f9a21c;}</style></defs><g transform="translate(0 0)"><g transform="translate(18.094)"><g transform="translate(9.5 37.939)"><path class="a" d="M-103.348,510.412a1.349,1.349,0,0,1-1.349-1.349v-4.634a3.67,3.67,0,0,1,3.665-3.666h9.32l-1.481-4.586a1.347,1.347,0,0,1,.869-1.7,1.347,1.347,0,0,1,1.7.867l2.052,6.352a1.352,1.352,0,0,1-.193,1.209,1.353,1.353,0,0,1-1.091.554h-11.173a.969.969,0,0,0-.967.969v4.634A1.349,1.349,0,0,1-103.348,510.412Z" transform="translate(117.821 -494.412)"/><path class="a" d="M-99.953,510.4a1.349,1.349,0,0,1-1.349-1.349v-4.634a.969.969,0,0,0-.969-.969h-10.806a1.351,1.351,0,0,1-1.078-.535,1.351,1.351,0,0,1-.22-1.183l1.8-6.294a1.355,1.355,0,0,1,1.667-.928,1.351,1.351,0,0,1,.927,1.667l-1.308,4.576h9.019a3.67,3.67,0,0,1,3.666,3.666v4.634A1.349,1.349,0,0,1-99.953,510.4Z" transform="translate(114.426 -494.397)"/></g><path class="a" d="M-101.635,486.985h-2.7a1.349,1.349,0,0,1-1.349-1.349,1.349,1.349,0,0,1,1.349-1.349h2.7a1.348,1.348,0,0,1,1.349,1.349A1.348,1.348,0,0,1-101.635,486.985Z" transform="translate(126.978 -460.006)"/><g transform="translate(14.551)"><path class="a" d="M-101.239,487.87c-5.648,0-9.443-4.337-9.443-10.791s3.795-10.791,9.443-10.791,9.443,4.337,9.443,10.791S-95.592,487.87-101.239,487.87Zm0-18.885c-4.978,0-6.745,4.361-6.745,8.094s1.767,8.094,6.745,8.094,6.745-4.36,6.745-8.094S-96.261,468.985-101.239,468.985Z" transform="translate(110.682 -466.287)"/></g><path class="a" d="M-103.333,497.776a1.349,1.349,0,0,1-1.349-1.349V485.636a1.349,1.349,0,0,1,1.349-1.349,1.348,1.348,0,0,1,1.349,1.349v10.791A1.348,1.348,0,0,1-103.333,497.776Z" transform="translate(127.327 -460.006)"/><path class="a" d="M-78.591,513.964H-92.408a1.349,1.349,0,0,1-1.349-1.349,1.349,1.349,0,0,1,1.349-1.349h13.817a2.2,2.2,0,0,0,1.918-.8A4.46,4.46,0,0,0-76.5,506.7l-4.171-12.911c-1.643-4.63-4.109-6.8-7.743-6.8h-.208l-6.511,10.64a2.664,2.664,0,0,1-2.339,1.353,2.691,2.691,0,0,1-2.374-1.419l-6.475-10.574h-.208c-3.635,0-6.1,2.172-7.756,6.838l-4.16,12.884a4.44,4.44,0,0,0,.171,3.762,2.2,2.2,0,0,0,1.917.8h13.817a1.348,1.348,0,0,1,1.349,1.349,1.348,1.348,0,0,1-1.349,1.349h-13.817a4.79,4.79,0,0,1-4.093-1.9,6.908,6.908,0,0,1-.565-6.178l4.175-12.93c2.046-5.765,5.512-8.67,10.311-8.67h.963a1.348,1.348,0,0,1,1.151.645l6.907,11.284,6.979-11.284a1.35,1.35,0,0,1,1.151-.645h.964c4.8,0,8.265,2.9,10.3,8.632l4.186,12.958a6.916,6.916,0,0,1-.563,6.188A4.793,4.793,0,0,1-78.591,513.964Z" transform="translate(121.469 -460.006)"/></g><g transform="translate(0 51.259)"><path class="a" d="M-95.824,537.351a5.36,5.36,0,0,1-3.772-1.572,5.356,5.356,0,0,1-1.58-3.817,5.356,5.356,0,0,1,1.588-3.816l1.837-1.775a1.35,1.35,0,0,1,1.907.034,1.347,1.347,0,0,1-.032,1.906l-1.824,1.76a2.679,2.679,0,0,0-.778,1.894,2.678,2.678,0,0,0,.789,1.907,2.547,2.547,0,0,0,1.932.78,2.367,2.367,0,0,0,1.716-.784l10.885-10.215a1.347,1.347,0,0,1,.923-.366H-73.8a1.349,1.349,0,0,1,1.349,1.349,1.349,1.349,0,0,1-1.349,1.349h-7.9l-10.414,9.768a4.952,4.952,0,0,1-3.569,1.6Z" transform="translate(146.645 -497.657)"/><path class="a" d="M-133.534,506.99a1.348,1.348,0,0,1-1.349-1.349,1.349,1.349,0,0,1,1.349-1.349l80.936-.005a1.349,1.349,0,0,1,1.349,1.349,1.349,1.349,0,0,1-1.349,1.349Z" transform="translate(134.883 -504.287)"/><path class="a" d="M-115.526,534.49a5.374,5.374,0,0,1-3.812-1.577,5.357,5.357,0,0,1-1.58-3.819,5.353,5.353,0,0,1,1.588-3.815l14.532-14.471a1.35,1.35,0,0,1,1.907,0,1.352,1.352,0,0,1,0,1.909l-14.532,14.471a2.672,2.672,0,0,0-.793,1.906,2.673,2.673,0,0,0,.789,1.907,2.759,2.759,0,0,0,3.809,0l11.309-11.309a1.347,1.347,0,0,1,1.907,0,1.347,1.347,0,0,1,0,1.907l-11.309,11.309A5.376,5.376,0,0,1-115.526,534.49Z" transform="translate(139.756 -502.148)"/><path class="a" d="M-107.963,533.669a5.433,5.433,0,0,1-3.8-1.791,5.355,5.355,0,0,1-1.578-3.819,5.352,5.352,0,0,1,1.586-3.813l7.139-7.1a1.346,1.346,0,0,1,1.907.005,1.348,1.348,0,0,1-.005,1.907l-7.137,7.1a2.67,2.67,0,0,0-.792,1.9,2.676,2.676,0,0,0,.789,1.909,3.005,3.005,0,0,0,1.933,1,2.525,2.525,0,0,0,1.712-1l7.076-7.078a1.347,1.347,0,0,1,1.907,0,1.347,1.347,0,0,1,0,1.907l-7.025,7.025a5,5,0,0,1-3.6,1.845Z" transform="translate(142.4 -499.937)"/><path class="a" d="M-102.157,535.332a5.36,5.36,0,0,1-3.772-1.571,5.353,5.353,0,0,1-1.58-3.817,5.353,5.353,0,0,1,1.586-3.815l4.778-4.717a1.35,1.35,0,0,1,1.909.012,1.349,1.349,0,0,1-.012,1.907l-4.774,4.713a2.665,2.665,0,0,0-.789,1.9,2.673,2.673,0,0,0,.789,1.907,2.5,2.5,0,0,0,1.933.78,2.36,2.36,0,0,0,1.713-.784l4.743-4.747a1.35,1.35,0,0,1,1.907,0,1.348,1.348,0,0,1,0,1.908l-4.693,4.694a4.986,4.986,0,0,1-3.6,1.627Z" transform="translate(144.435 -498.448)"/><path class="a" d="M-91.976,523.821a5.386,5.386,0,0,1-3.816-1.577l-7.164-7.166h-4.828a1.348,1.348,0,0,1-1.349-1.349,1.348,1.348,0,0,1,1.349-1.349h5.386a1.349,1.349,0,0,1,.954.4l7.559,7.561a2.7,2.7,0,0,0,3.816,0,2.7,2.7,0,0,0,0-3.817l-9.929-9.93a1.347,1.347,0,0,1,0-1.907,1.35,1.35,0,0,1,1.907,0l9.929,9.93a5.4,5.4,0,0,1,0,7.632A5.382,5.382,0,0,1-91.976,523.821Z" transform="translate(143.868 -504.287)"/><path class="a" d="M-117.222,525.985h-8.937a1.348,1.348,0,0,1-1.349-1.349,1.348,1.348,0,0,1,1.349-1.349h8.937a1.349,1.349,0,0,1,1.349,1.349A1.349,1.349,0,0,1-117.222,525.985Z" transform="translate(137.456 -497.657)"/></g></g></svg>