<svg xmlns="http://www.w3.org/2000/svg" width="89.382" height="107.504" viewBox="0 0 89.382 107.504"><defs><style>.a{fill:#f9a21c;}</style></defs><g transform="translate(0 0)"><g transform="translate(0 0)"><g transform="translate(0 38.757)"><path class="a" d="M-198.955,575.593a1.451,1.451,0,0,1-1.453-1.453v-4.358a1.452,1.452,0,0,1,1.453-1.453,1.452,1.452,0,0,1,1.453,1.453v4.358A1.451,1.451,0,0,1-198.955,575.593Z" transform="translate(206.219 -562.518)"/><path class="a" d="M-178.617,593.383h-20.338a1.451,1.451,0,0,1-1.453-1.453V586.12a1.452,1.452,0,0,1,1.453-1.453,1.452,1.452,0,0,1,1.453,1.453v4.358h17.433V568.687a1.454,1.454,0,0,0-1.453-1.453h-2.907a1.451,1.451,0,0,1-1.453-1.453,1.452,1.452,0,0,1,1.453-1.453h2.907a4.363,4.363,0,0,1,4.358,4.358v23.244A1.451,1.451,0,0,1-178.617,593.383Z" transform="translate(206.219 -564.329)"/><path class="a" d="M-182.617,573.045h-20.338a1.451,1.451,0,0,1-1.453-1.453v-2.905a4.363,4.363,0,0,1,4.358-4.358h20.338a1.452,1.452,0,0,1,1.453,1.453,1.451,1.451,0,0,1-1.453,1.453,1.454,1.454,0,0,0-1.453,1.453v2.905A1.451,1.451,0,0,1-182.617,573.045ZM-201.5,570.14h17.433v-1.453a4.34,4.34,0,0,1,.248-1.453H-200.05a1.454,1.454,0,0,0-1.453,1.453Z" transform="translate(204.408 -564.329)"/><path class="a" d="M-196.821,583.951h-2.461a3.13,3.13,0,0,1-3.126-3.128v-5.365a3.132,3.132,0,0,1,3.126-3.129h2.461a3.132,3.132,0,0,1,3.129,3.129v5.365A3.131,3.131,0,0,1-196.821,583.951Zm-2.461-8.716a.222.222,0,0,0-.221.224v5.365a.221.221,0,0,0,.221.222h2.461a.223.223,0,0,0,.224-.222v-5.365a.224.224,0,0,0-.224-.224Z" transform="translate(205.313 -560.707)"/></g><g transform="translate(15.088)"><path class="a" d="M-175.853,560.894c-6.083,0-10.169-4.671-10.169-11.622s4.087-11.622,10.169-11.622,10.169,4.67,10.169,11.622S-169.772,560.894-175.853,560.894Zm0-20.338c-5.362,0-7.264,4.7-7.264,8.716s1.9,8.716,7.264,8.716,7.264-4.7,7.264-8.716S-170.492,540.555-175.853,540.555Z" transform="translate(197.644 -537.65)"/><path class="a" d="M-169.569,622.515a1.451,1.451,0,0,1-1.453-1.453V589.1a1.452,1.452,0,0,1,1.453-1.453,1.453,1.453,0,0,1,1.453,1.453v31.959A1.452,1.452,0,0,1-169.569,622.515Z" transform="translate(204.435 -515.013)"/><path class="a" d="M-172.854,622.968a1.452,1.452,0,0,1-1.447-1.326l-2.789-32.086h-.241l-2.791,32.086a1.442,1.442,0,0,1-1.573,1.321,1.452,1.452,0,0,1-1.322-1.572l2.905-33.413a1.454,1.454,0,0,1,1.448-1.328h2.905a1.454,1.454,0,0,1,1.447,1.328l2.905,33.413a1.452,1.452,0,0,1-1.322,1.572A1.216,1.216,0,0,1-172.854,622.968Z" transform="translate(199.002 -515.466)"/><path class="a" d="M-187.569,624.906h0a1.45,1.45,0,0,1-1.451-1.454l.045-39.632a1.453,1.453,0,0,1,1.453-1.451h0a1.452,1.452,0,0,1,1.451,1.454l-.045,39.632A1.454,1.454,0,0,1-187.569,624.906Z" transform="translate(196.286 -517.405)"/><path class="a" d="M-172.231,575.988a1.456,1.456,0,0,1-1.3-.8l-8.3-16.593a10.092,10.092,0,0,0-9.289,10.035,1.453,1.453,0,0,1-1.453,1.453,1.452,1.452,0,0,1-1.453-1.453,12.991,12.991,0,0,1,12.976-12.979,1.606,1.606,0,0,1,1.4.8l7.418,14.834,7.416-14.834a1.454,1.454,0,0,1,1.3-.8,13.017,13.017,0,0,1,10.856,5.721,1.453,1.453,0,0,1-.391,2.018,1.455,1.455,0,0,1-2.018-.391,10.069,10.069,0,0,0-7.566-4.412l-8.3,16.6A1.455,1.455,0,0,1-172.231,575.988Z" transform="translate(194.022 -529.501)"/><path class="a" d="M-176.664,558.555h-2.905a1.451,1.451,0,0,1-1.453-1.453,1.452,1.452,0,0,1,1.453-1.453h2.905a1.453,1.453,0,0,1,1.453,1.453A1.452,1.452,0,0,1-176.664,558.555Z" transform="translate(199.907 -529.501)"/><path class="a" d="M-178.569,574.535a1.451,1.451,0,0,1-1.453-1.453V557.1a1.452,1.452,0,0,1,1.453-1.453,1.453,1.453,0,0,1,1.453,1.453v15.98A1.452,1.452,0,0,1-178.569,574.535Z" transform="translate(200.36 -529.501)"/></g></g><g transform="translate(42.69 31.372)"><path class="a" d="M-151.677,605.937a23.372,23.372,0,0,1-23.345-23.345,23.373,23.373,0,0,1,23.345-23.347,23.373,23.373,0,0,1,23.347,23.347A23.372,23.372,0,0,1-151.677,605.937Zm0-43.786a20.464,20.464,0,0,0-20.44,20.441,20.462,20.462,0,0,0,20.44,20.44,20.463,20.463,0,0,0,20.441-20.44A20.464,20.464,0,0,0-151.677,562.15Z" transform="translate(175.022 -559.245)"/><g transform="translate(10.512 13.68)"><path class="a" d="M-157.993,589.146l-9.793-8.4,1.891-2.2,7.6,6.517,14.19-16.4,2.2,1.9Z" transform="translate(167.786 -568.662)"/></g></g></g></svg>