<svg xmlns="http://www.w3.org/2000/svg" width="95.286" height="55.279" viewBox="0 0 95.286 55.279"><defs><style>.a{fill:none;stroke:#eda541;stroke-width:3px;}</style></defs><path class="a" d="M-12.758-25.273q0,13.451-4.507,19.709T-31.062.693q-9.083,0-13.694-6.535t-4.611-19.431q0-13.521,4.507-19.83t13.8-6.31q9.048,0,13.677,6.57T-12.758-25.273Zm-22.985,0q0,8.6,1.075,11.822t3.605,3.224q2.565,0,3.623-3.328t1.057-11.718q0-8.424-1.075-11.8t-3.605-3.38q-2.531,0-3.605,3.259T-35.743-25.273ZM-7.28-5.755a6.345,6.345,0,0,1,1.889-4.923A7.856,7.856,0,0,1,.1-12.411a7.39,7.39,0,0,1,5.27,1.733A6.441,6.441,0,0,1,7.211-5.755,6.312,6.312,0,0,1,5.322-.884,7.381,7.381,0,0,1,.1.867,7.918,7.918,0,0,1-5.3-.867,6.157,6.157,0,0,1-7.28-5.755ZM42.919,0h-13.9V-26.833q0-4.888.208-8.944a29.732,29.732,0,0,1-3.189,3.259l-5.755,4.75-7.107-8.736,17.4-14.179H42.919Z" transform="translate(50.867 52.913)"/></svg>